<svg xmlns="http://www.w3.org/2000/svg" viewBox="0 0 1600 600" preserveAspectRatio="xMidYMid slice"><defs><filter id="grain"><feTurbulence type="fractalNoise" baseFrequency="0.9" numOctaves="2" stitchTiles="stitch"/><feColorMatrix type="saturate" values="0"/><feComponentTransfer><feFuncA type="linear" slope="0.06"/></feComponentTransfer><feComposite operator="over" in2="SourceGraphic"/></filter><linearGradient id="sh" x1="0" y1="0" x2="1" y2="0.2"><stop offset="0%" stop-color="#0b0d0f"/><stop offset="35%" stop-color="#2b2f35"/><stop offset="55%" stop-color="#4a4e55"/><stop offset="70%" stop-color="#20242a"/><stop offset="100%" stop-color="#0b0d0f"/></linearGradient></defs><rect width="1600" height="600" fill="url(#sh)"/><rect x="0" y="194.3" width="1600" height="0.62" fill="#c9ccd1" opacity="0.035"/><rect x="0" y="321.5" width="1600" height="2.05" fill="#c9ccd1" opacity="0.057"/><rect x="0" y="128.8" width="1600" height="0.62" fill="#35cfc4" opacity="0.029"/><rect x="0" y="54.4" width="1600" height="2.11" fill="#c9ccd1" opacity="0.062"/><rect x="0" y="378.4" width="1600" height="1.48" fill="#c9ccd1" opacity="0.078"/><rect x="0" y="238.0" width="1600" height="1.45" fill="#c9ccd1" opacity="0.118"/><rect x="0" y="79.9" width="1600" height="1.47" fill="#c9ccd1" opacity="0.062"/><rect x="0" y="336.2" width="1600" height="1.49" fill="#c9ccd1" opacity="0.088"/><rect x="0" y="383.3" width="1600" height="1.46" fill="#c9ccd1" opacity="0.057"/><rect x="0" y="371.4" width="1600" height="1.82" fill="#35cfc4" opacity="0.070"/><rect x="0" y="279.4" width="1600" height="1.01" fill="#e8eaec" opacity="0.112"/><rect x="0" y="476.6" width="1600" height="0.64" fill="#6f7378" opacity="0.090"/><rect x="0" y="180.1" width="1600" height="1.74" fill="#e8eaec" opacity="0.070"/><rect x="0" y="172.8" width="1600" height="1.37" fill="#c9ccd1" opacity="0.118"/><rect x="0" y="99.0" width="1600" height="1.22" fill="#35cfc4" opacity="0.054"/><rect x="0" y="577.2" width="1600" height="1.08" fill="#e8eaec" opacity="0.028"/><rect x="0" y="210.1" width="1600" height="0.62" fill="#35cfc4" opacity="0.070"/><rect x="0" y="56.2" width="1600" height="0.60" fill="#c9ccd1" opacity="0.047"/><rect x="0" y="420.9" width="1600" height="0.98" fill="#35cfc4" opacity="0.085"/><rect x="0" y="231.5" width="1600" height="2.10" fill="#c9ccd1" opacity="0.087"/><rect x="0" y="213.3" width="1600" height="0.60" fill="#35cfc4" opacity="0.081"/><rect x="0" y="460.9" width="1600" height="1.18" fill="#6f7378" opacity="0.033"/><rect x="0" y="550.1" width="1600" height="1.26" fill="#6f7378" opacity="0.070"/><rect x="0" y="329.7" width="1600" height="1.97" fill="#35cfc4" opacity="0.108"/><rect x="0" y="167.1" width="1600" height="1.66" fill="#e8eaec" opacity="0.062"/><rect x="0" y="228.3" width="1600" height="0.80" fill="#c9ccd1" opacity="0.043"/><rect x="0" y="139.2" width="1600" height="1.91" fill="#35cfc4" opacity="0.043"/><rect x="0" y="109.4" width="1600" height="1.21" fill="#6f7378" opacity="0.048"/><rect x="0" y="221.6" width="1600" height="1.67" fill="#6f7378" opacity="0.077"/><rect x="0" y="309.3" width="1600" height="1.28" fill="#c9ccd1" opacity="0.082"/><rect x="0" y="522.6" width="1600" height="1.18" fill="#35cfc4" opacity="0.115"/><rect x="0" y="236.5" width="1600" height="0.61" fill="#35cfc4" opacity="0.068"/><rect x="0" y="40.4" width="1600" height="0.69" fill="#6f7378" opacity="0.041"/><rect x="0" y="360.4" width="1600" height="1.41" fill="#6f7378" opacity="0.030"/><rect x="0" y="569.4" width="1600" height="1.99" fill="#c9ccd1" opacity="0.081"/><rect x="0" y="368.4" width="1600" height="2.12" fill="#e8eaec" opacity="0.035"/><rect x="0" y="361.4" width="1600" height="1.94" fill="#c9ccd1" opacity="0.067"/><rect x="0" y="595.9" width="1600" height="1.03" fill="#35cfc4" opacity="0.067"/><rect x="0" y="86.5" width="1600" height="1.31" fill="#e8eaec" opacity="0.095"/><rect x="0" y="415.2" width="1600" height="2.12" fill="#6f7378" opacity="0.072"/><rect x="0" y="317.0" width="1600" height="1.79" fill="#c9ccd1" opacity="0.035"/><rect x="0" y="178.9" width="1600" height="1.68" fill="#c9ccd1" opacity="0.084"/><rect x="0" y="156.7" width="1600" height="1.10" fill="#6f7378" opacity="0.057"/><rect x="0" y="133.7" width="1600" height="1.58" fill="#e8eaec" opacity="0.074"/><rect x="0" y="367.9" width="1600" height="1.87" fill="#6f7378" opacity="0.099"/><rect x="0" y="491.0" width="1600" height="0.84" fill="#6f7378" opacity="0.094"/><rect x="0" y="295.7" width="1600" height="1.84" fill="#c9ccd1" opacity="0.093"/><rect x="0" y="283.3" width="1600" height="1.26" fill="#e8eaec" opacity="0.039"/><rect x="0" y="562.2" width="1600" height="0.64" fill="#e8eaec" opacity="0.119"/><rect x="0" y="61.3" width="1600" height="0.85" fill="#e8eaec" opacity="0.067"/><rect x="0" y="374.4" width="1600" height="1.32" fill="#c9ccd1" opacity="0.110"/><rect x="0" y="391.8" width="1600" height="1.92" fill="#c9ccd1" opacity="0.100"/><rect x="0" y="71.9" width="1600" height="1.31" fill="#6f7378" opacity="0.059"/><rect x="0" y="107.1" width="1600" height="0.65" fill="#e8eaec" opacity="0.099"/><rect x="0" y="567.7" width="1600" height="1.18" fill="#35cfc4" opacity="0.092"/><rect x="0" y="568.1" width="1600" height="2.19" fill="#6f7378" opacity="0.092"/><rect x="0" y="16.5" width="1600" height="1.87" fill="#35cfc4" opacity="0.079"/><rect x="0" y="87.7" width="1600" height="1.62" fill="#35cfc4" opacity="0.103"/><rect x="0" y="210.2" width="1600" height="0.54" fill="#6f7378" opacity="0.075"/><rect x="0" y="479.6" width="1600" height="1.40" fill="#c9ccd1" opacity="0.093"/><rect x="0" y="560.2" width="1600" height="1.90" fill="#6f7378" opacity="0.063"/><rect x="0" y="126.6" width="1600" height="1.35" fill="#e8eaec" opacity="0.045"/><rect x="0" y="458.2" width="1600" height="1.92" fill="#35cfc4" opacity="0.053"/><rect x="0" y="36.5" width="1600" height="1.63" fill="#35cfc4" opacity="0.094"/><rect x="0" y="489.0" width="1600" height="1.40" fill="#6f7378" opacity="0.072"/><rect x="0" y="314.1" width="1600" height="1.82" fill="#35cfc4" opacity="0.022"/><rect x="0" y="365.1" width="1600" height="0.79" fill="#6f7378" opacity="0.098"/><rect x="0" y="284.1" width="1600" height="1.05" fill="#c9ccd1" opacity="0.093"/><rect x="0" y="311.0" width="1600" height="2.00" fill="#c9ccd1" opacity="0.076"/><rect x="0" y="34.1" width="1600" height="1.81" fill="#c9ccd1" opacity="0.039"/><rect x="0" y="304.6" width="1600" height="1.25" fill="#c9ccd1" opacity="0.076"/><rect x="0" y="367.5" width="1600" height="1.68" fill="#6f7378" opacity="0.071"/><rect x="0" y="271.4" width="1600" height="1.36" fill="#35cfc4" opacity="0.073"/><rect x="0" y="148.6" width="1600" height="2.07" fill="#e8eaec" opacity="0.072"/><rect x="0" y="535.7" width="1600" height="0.73" fill="#35cfc4" opacity="0.040"/><rect x="0" y="73.0" width="1600" height="1.64" fill="#c9ccd1" opacity="0.064"/><rect x="0" y="257.0" width="1600" height="1.83" fill="#e8eaec" opacity="0.041"/><rect x="0" y="538.2" width="1600" height="0.74" fill="#e8eaec" opacity="0.035"/><rect x="0" y="529.7" width="1600" height="1.77" fill="#6f7378" opacity="0.117"/><rect x="0" y="56.5" width="1600" height="2.18" fill="#6f7378" opacity="0.108"/><rect x="0" y="499.5" width="1600" height="2.19" fill="#35cfc4" opacity="0.036"/><rect x="0" y="242.3" width="1600" height="1.04" fill="#e8eaec" opacity="0.062"/><rect x="0" y="433.3" width="1600" height="1.25" fill="#35cfc4" opacity="0.022"/><rect x="0" y="10.8" width="1600" height="1.37" fill="#e8eaec" opacity="0.053"/><rect x="0" y="38.6" width="1600" height="2.15" fill="#6f7378" opacity="0.119"/><rect x="0" y="62.9" width="1600" height="2.04" fill="#c9ccd1" opacity="0.047"/><rect x="0" y="108.9" width="1600" height="1.94" fill="#35cfc4" opacity="0.096"/><rect x="0" y="405.6" width="1600" height="0.75" fill="#35cfc4" opacity="0.115"/><rect x="0" y="551.5" width="1600" height="0.65" fill="#e8eaec" opacity="0.077"/><rect x="0" y="34.5" width="1600" height="2.02" fill="#35cfc4" opacity="0.089"/><rect x="0" y="161.4" width="1600" height="1.86" fill="#c9ccd1" opacity="0.022"/><rect x="0" y="50.2" width="1600" height="0.95" fill="#c9ccd1" opacity="0.106"/><rect x="0" y="73.0" width="1600" height="2.08" fill="#35cfc4" opacity="0.021"/><rect x="0" y="160.7" width="1600" height="2.09" fill="#6f7378" opacity="0.033"/><rect x="0" y="581.5" width="1600" height="0.84" fill="#6f7378" opacity="0.046"/><rect x="0" y="187.2" width="1600" height="0.99" fill="#6f7378" opacity="0.051"/><rect x="0" y="300.1" width="1600" height="1.87" fill="#e8eaec" opacity="0.038"/><rect x="0" y="596.7" width="1600" height="1.75" fill="#c9ccd1" opacity="0.024"/><rect x="0" y="330.6" width="1600" height="0.92" fill="#35cfc4" opacity="0.039"/><rect x="0" y="268.2" width="1600" height="1.62" fill="#35cfc4" opacity="0.086"/><rect x="0" y="327.5" width="1600" height="1.67" fill="#e8eaec" opacity="0.109"/><rect x="0" y="589.5" width="1600" height="1.19" fill="#6f7378" opacity="0.054"/><rect x="0" y="208.5" width="1600" height="0.52" fill="#6f7378" opacity="0.025"/><rect x="0" y="375.3" width="1600" height="0.78" fill="#35cfc4" opacity="0.108"/><rect x="0" y="50.7" width="1600" height="1.52" fill="#e8eaec" opacity="0.104"/><rect x="0" y="415.6" width="1600" height="0.77" fill="#6f7378" opacity="0.025"/><rect x="0" y="267.5" width="1600" height="2.15" fill="#e8eaec" opacity="0.046"/><rect x="0" y="328.2" width="1600" height="0.87" fill="#e8eaec" opacity="0.044"/><rect x="0" y="109.8" width="1600" height="1.31" fill="#c9ccd1" opacity="0.054"/><rect x="0" y="301.7" width="1600" height="0.65" fill="#c9ccd1" opacity="0.040"/><rect x="0" y="490.2" width="1600" height="1.17" fill="#c9ccd1" opacity="0.034"/><rect x="0" y="179.8" width="1600" height="1.50" fill="#c9ccd1" opacity="0.083"/><rect x="0" y="317.5" width="1600" height="1.80" fill="#35cfc4" opacity="0.095"/><rect x="0" y="432.4" width="1600" height="1.73" fill="#e8eaec" opacity="0.069"/><rect x="0" y="385.9" width="1600" height="1.75" fill="#35cfc4" opacity="0.024"/><rect x="0" y="487.3" width="1600" height="1.90" fill="#c9ccd1" opacity="0.034"/><rect x="0" y="350.4" width="1600" height="0.64" fill="#6f7378" opacity="0.109"/><rect x="0" y="25.1" width="1600" height="1.14" fill="#c9ccd1" opacity="0.084"/><rect x="0" y="270.8" width="1600" height="1.56" fill="#c9ccd1" opacity="0.025"/><rect x="0" y="408.4" width="1600" height="1.28" fill="#c9ccd1" opacity="0.069"/><rect x="0" y="42.1" width="1600" height="1.62" fill="#c9ccd1" opacity="0.113"/><rect x="0" y="39.6" width="1600" height="1.88" fill="#e8eaec" opacity="0.094"/><rect x="0" y="507.7" width="1600" height="0.89" fill="#6f7378" opacity="0.043"/><rect x="0" y="390.0" width="1600" height="0.63" fill="#35cfc4" opacity="0.066"/><rect x="0" y="546.3" width="1600" height="1.55" fill="#c9ccd1" opacity="0.049"/><rect x="0" y="385.7" width="1600" height="1.06" fill="#6f7378" opacity="0.028"/><rect x="0" y="390.9" width="1600" height="0.52" fill="#6f7378" opacity="0.089"/><rect x="0" y="36.4" width="1600" height="1.68" fill="#c9ccd1" opacity="0.047"/><rect x="0" y="405.4" width="1600" height="1.29" fill="#e8eaec" opacity="0.049"/><rect x="0" y="279.8" width="1600" height="1.03" fill="#6f7378" opacity="0.032"/><rect x="0" y="51.5" width="1600" height="1.28" fill="#e8eaec" opacity="0.067"/><rect x="0" y="491.9" width="1600" height="2.19" fill="#35cfc4" opacity="0.117"/><rect x="0" y="232.1" width="1600" height="0.63" fill="#6f7378" opacity="0.112"/><rect x="0" y="54.2" width="1600" height="2.12" fill="#e8eaec" opacity="0.095"/><rect x="0" y="79.6" width="1600" height="2.01" fill="#e8eaec" opacity="0.102"/><rect x="0" y="422.0" width="1600" height="1.17" fill="#35cfc4" opacity="0.043"/><rect x="0" y="95.4" width="1600" height="1.19" fill="#35cfc4" opacity="0.115"/><rect x="0" y="436.3" width="1600" height="1.04" fill="#35cfc4" opacity="0.062"/><rect x="0" y="504.1" width="1600" height="1.93" fill="#e8eaec" opacity="0.020"/><rect x="0" y="72.0" width="1600" height="2.03" fill="#c9ccd1" opacity="0.113"/><rect x="0" y="173.9" width="1600" height="1.16" fill="#35cfc4" opacity="0.057"/><rect x="0" y="522.0" width="1600" height="1.78" fill="#35cfc4" opacity="0.028"/><rect x="0" y="512.6" width="1600" height="1.92" fill="#c9ccd1" opacity="0.048"/><rect x="0" y="171.4" width="1600" height="2.15" fill="#6f7378" opacity="0.114"/><rect x="0" y="261.7" width="1600" height="1.83" fill="#e8eaec" opacity="0.052"/><rect x="0" y="256.6" width="1600" height="2.05" fill="#35cfc4" opacity="0.023"/><rect x="0" y="564.4" width="1600" height="0.58" fill="#c9ccd1" opacity="0.075"/><rect x="0" y="439.4" width="1600" height="1.60" fill="#6f7378" opacity="0.065"/><rect x="0" y="171.7" width="1600" height="0.79" fill="#6f7378" opacity="0.025"/><rect x="0" y="248.9" width="1600" height="1.76" fill="#e8eaec" opacity="0.048"/><rect x="0" y="585.8" width="1600" height="1.01" fill="#6f7378" opacity="0.046"/><rect x="0" y="334.4" width="1600" height="1.59" fill="#6f7378" opacity="0.059"/><rect x="0" y="45.1" width="1600" height="1.44" fill="#35cfc4" opacity="0.070"/><rect x="0" y="271.8" width="1600" height="1.23" fill="#35cfc4" opacity="0.053"/><rect x="0" y="328.7" width="1600" height="1.08" fill="#6f7378" opacity="0.044"/><rect x="0" y="54.7" width="1600" height="1.88" fill="#e8eaec" opacity="0.044"/><rect x="0" y="121.3" width="1600" height="1.15" fill="#35cfc4" opacity="0.022"/><rect x="0" y="447.5" width="1600" height="1.07" fill="#e8eaec" opacity="0.041"/><rect x="0" y="37.2" width="1600" height="0.71" fill="#e8eaec" opacity="0.048"/><rect x="0" y="302.0" width="1600" height="0.66" fill="#6f7378" opacity="0.083"/><rect x="0" y="538.1" width="1600" height="1.23" fill="#35cfc4" opacity="0.058"/><rect x="0" y="187.2" width="1600" height="0.72" fill="#c9ccd1" opacity="0.101"/><rect x="0" y="255.1" width="1600" height="2.15" fill="#35cfc4" opacity="0.096"/><rect x="0" y="293.9" width="1600" height="2.15" fill="#35cfc4" opacity="0.027"/><rect x="0" y="149.1" width="1600" height="0.76" fill="#6f7378" opacity="0.031"/><rect x="0" y="583.1" width="1600" height="0.64" fill="#35cfc4" opacity="0.031"/><rect x="0" y="466.1" width="1600" height="0.90" fill="#6f7378" opacity="0.020"/><rect x="0" y="552.0" width="1600" height="2.14" fill="#e8eaec" opacity="0.085"/><rect x="0" y="375.9" width="1600" height="1.69" fill="#35cfc4" opacity="0.073"/><rect x="0" y="67.3" width="1600" height="1.16" fill="#6f7378" opacity="0.027"/><rect x="0" y="134.1" width="1600" height="1.41" fill="#c9ccd1" opacity="0.080"/><rect x="0" y="597.8" width="1600" height="1.60" fill="#e8eaec" opacity="0.048"/><rect x="0" y="530.3" width="1600" height="1.43" fill="#6f7378" opacity="0.068"/><rect x="0" y="17.6" width="1600" height="0.59" fill="#e8eaec" opacity="0.061"/><rect x="0" y="116.5" width="1600" height="0.64" fill="#35cfc4" opacity="0.108"/><rect x="0" y="136.7" width="1600" height="0.89" fill="#e8eaec" opacity="0.062"/><rect x="0" y="20.5" width="1600" height="1.12" fill="#35cfc4" opacity="0.054"/><rect x="0" y="237.8" width="1600" height="1.76" fill="#e8eaec" opacity="0.021"/><rect x="0" y="302.9" width="1600" height="1.03" fill="#6f7378" opacity="0.041"/><rect x="0" y="492.0" width="1600" height="0.95" fill="#6f7378" opacity="0.043"/><rect x="0" y="533.6" width="1600" height="1.54" fill="#35cfc4" opacity="0.031"/><rect x="0" y="537.9" width="1600" height="2.11" fill="#c9ccd1" opacity="0.069"/><rect x="0" y="87.8" width="1600" height="0.54" fill="#6f7378" opacity="0.059"/><rect x="0" y="357.7" width="1600" height="0.81" fill="#c9ccd1" opacity="0.062"/><rect x="0" y="269.8" width="1600" height="1.75" fill="#e8eaec" opacity="0.091"/><rect x="0" y="598.5" width="1600" height="0.82" fill="#e8eaec" opacity="0.113"/><rect x="0" y="391.5" width="1600" height="0.55" fill="#35cfc4" opacity="0.072"/><rect x="0" y="398.7" width="1600" height="2.17" fill="#e8eaec" opacity="0.058"/><rect x="0" y="265.5" width="1600" height="0.98" fill="#c9ccd1" opacity="0.031"/><rect x="0" y="210.9" width="1600" height="1.45" fill="#c9ccd1" opacity="0.116"/><rect x="0" y="455.3" width="1600" height="1.90" fill="#e8eaec" opacity="0.058"/><rect x="0" y="259.5" width="1600" height="0.83" fill="#35cfc4" opacity="0.025"/><rect x="0" y="324.9" width="1600" height="1.12" fill="#e8eaec" opacity="0.065"/><rect x="0" y="538.2" width="1600" height="0.92" fill="#35cfc4" opacity="0.023"/><rect x="0" y="375.2" width="1600" height="0.56" fill="#35cfc4" opacity="0.060"/><rect x="0" y="37.5" width="1600" height="0.83" fill="#e8eaec" opacity="0.112"/><rect x="0" y="37.7" width="1600" height="0.96" fill="#e8eaec" opacity="0.081"/><rect x="0" y="574.6" width="1600" height="1.77" fill="#e8eaec" opacity="0.082"/><rect x="0" y="413.7" width="1600" height="0.51" fill="#e8eaec" opacity="0.112"/><rect x="0" y="453.4" width="1600" height="0.54" fill="#c9ccd1" opacity="0.112"/><rect x="0" y="140.3" width="1600" height="2.12" fill="#35cfc4" opacity="0.068"/><rect x="0" y="231.9" width="1600" height="1.89" fill="#35cfc4" opacity="0.045"/><rect x="0" y="79.6" width="1600" height="1.86" fill="#c9ccd1" opacity="0.070"/><rect x="0" y="443.1" width="1600" height="1.53" fill="#6f7378" opacity="0.102"/><rect x="0" y="196.7" width="1600" height="1.83" fill="#e8eaec" opacity="0.052"/><rect x="0" y="357.4" width="1600" height="1.78" fill="#35cfc4" opacity="0.071"/><rect x="0" y="148.4" width="1600" height="1.32" fill="#c9ccd1" opacity="0.026"/><rect x="0" y="326.8" width="1600" height="2.00" fill="#35cfc4" opacity="0.036"/><rect x="0" y="592.7" width="1600" height="0.85" fill="#c9ccd1" opacity="0.046"/><rect x="0" y="252.6" width="1600" height="0.79" fill="#35cfc4" opacity="0.119"/><rect x="0" y="79.8" width="1600" height="1.77" fill="#6f7378" opacity="0.066"/><rect x="0" y="508.2" width="1600" height="1.83" fill="#c9ccd1" opacity="0.086"/><rect x="0" y="176.4" width="1600" height="1.13" fill="#e8eaec" opacity="0.048"/><rect x="0" y="442.8" width="1600" height="0.82" fill="#6f7378" opacity="0.040"/><rect x="0" y="141.3" width="1600" height="1.05" fill="#6f7378" opacity="0.048"/><rect x="0" y="237.6" width="1600" height="1.60" fill="#6f7378" opacity="0.119"/><rect x="0" y="60.3" width="1600" height="0.67" fill="#c9ccd1" opacity="0.066"/><rect x="0" y="284.9" width="1600" height="2.05" fill="#35cfc4" opacity="0.102"/><rect x="0" y="24.2" width="1600" height="0.59" fill="#c9ccd1" opacity="0.049"/><rect x="0" y="360.3" width="1600" height="2.08" fill="#6f7378" opacity="0.103"/><rect width="1600" height="600" filter="url(#grain)" opacity="0.6"/></svg>