<svg xmlns="http://www.w3.org/2000/svg" viewBox="0 0 900 1200" preserveAspectRatio="xMidYMid slice"><defs><filter id="grain"><feTurbulence type="fractalNoise" baseFrequency="0.9" numOctaves="2" stitchTiles="stitch"/><feColorMatrix type="saturate" values="0"/><feComponentTransfer><feFuncA type="linear" slope="0.06"/></feComponentTransfer><feComposite operator="over" in2="SourceGraphic"/></filter><filter id="soft" x="-50%" y="-50%" width="200%" height="200%"><feGaussianBlur stdDeviation="34"/></filter><radialGradient id="b0" cx="50%" cy="50%" r="50%"><stop offset="0%" stop-color="#35cfc4" stop-opacity="0.4"/><stop offset="55%" stop-color="#35cfc4" stop-opacity="0.140"/><stop offset="100%" stop-color="#35cfc4" stop-opacity="0"/></radialGradient><radialGradient id="b1" cx="50%" cy="50%" r="50%"><stop offset="0%" stop-color="#e6a453" stop-opacity="0.25"/><stop offset="55%" stop-color="#e6a453" stop-opacity="0.087"/><stop offset="100%" stop-color="#e6a453" stop-opacity="0"/></radialGradient><radialGradient id="vg" cx="50%" cy="47%" r="72%"><stop offset="55%" stop-color="#000000" stop-opacity="0"/><stop offset="100%" stop-color="#000000" stop-opacity="0.85"/></radialGradient></defs><rect width="900" height="1200" fill="#05080a"/><g filter="url(#soft)"><circle cx="450.0" cy="528.0" r="300" fill="url(#b0)"/><circle cx="450.0" cy="1080.0" r="360" fill="url(#b1)"/></g><defs><radialGradient id="cg" cx="50%" cy="50%" r="50%"><stop offset="0%" stop-color="#dff2ff" stop-opacity="0.8"/><stop offset="55%" stop-color="#dff2ff" stop-opacity="0.280"/><stop offset="100%" stop-color="#dff2ff" stop-opacity="0"/></radialGradient><radialGradient id="cg2" cx="50%" cy="50%" r="50%"><stop offset="0%" stop-color="#ffffff" stop-opacity="0.9"/><stop offset="55%" stop-color="#ffffff" stop-opacity="0.315"/><stop offset="100%" stop-color="#ffffff" stop-opacity="0"/></radialGradient></defs><line x1="450.0" y1="528.0" x2="1350" y2="528" stroke="#35cfc4" stroke-opacity="0.05" stroke-width="1"/><line x1="450.0" y1="528.0" x2="1229" y2="1128" stroke="#35cfc4" stroke-opacity="0.05" stroke-width="1"/><line x1="450.0" y1="528.0" x2="900" y2="1567" stroke="#35cfc4" stroke-opacity="0.05" stroke-width="1"/><line x1="450.0" y1="528.0" x2="450" y2="1728" stroke="#35cfc4" stroke-opacity="0.05" stroke-width="1"/><line x1="450.0" y1="528.0" x2="0" y2="1567" stroke="#35cfc4" stroke-opacity="0.05" stroke-width="1"/><line x1="450.0" y1="528.0" x2="-329" y2="1128" stroke="#35cfc4" stroke-opacity="0.05" stroke-width="1"/><line x1="450.0" y1="528.0" x2="-450" y2="528" stroke="#35cfc4" stroke-opacity="0.05" stroke-width="1"/><line x1="450.0" y1="528.0" x2="-329" y2="-72" stroke="#35cfc4" stroke-opacity="0.05" stroke-width="1"/><line x1="450.0" y1="528.0" x2="-0" y2="-511" stroke="#35cfc4" stroke-opacity="0.05" stroke-width="1"/><line x1="450.0" y1="528.0" x2="450" y2="-672" stroke="#35cfc4" stroke-opacity="0.05" stroke-width="1"/><line x1="450.0" y1="528.0" x2="900" y2="-511" stroke="#35cfc4" stroke-opacity="0.05" stroke-width="1"/><line x1="450.0" y1="528.0" x2="1229" y2="-72" stroke="#35cfc4" stroke-opacity="0.05" stroke-width="1"/><rect x="0.0" y="-72.0" width="900.0" height="1200.0" fill="none" stroke="#cfe8ff" stroke-opacity="0.050" stroke-width="0.80"/><rect x="31.8" y="-29.5" width="836.3" height="1115.1" fill="none" stroke="#35cfc4" stroke-opacity="0.073" stroke-width="0.92"/><rect x="63.7" y="12.9" width="772.6" height="1030.2" fill="none" stroke="#cfe8ff" stroke-opacity="0.096" stroke-width="1.05"/><rect x="95.5" y="55.4" width="708.9" height="945.2" fill="none" stroke="#35cfc4" stroke-opacity="0.119" stroke-width="1.17"/><rect x="127.4" y="97.8" width="645.2" height="860.3" fill="none" stroke="#cfe8ff" stroke-opacity="0.142" stroke-width="1.29"/><rect x="159.2" y="140.3" width="581.5" height="775.4" fill="none" stroke="#35cfc4" stroke-opacity="0.165" stroke-width="1.42"/><rect x="191.1" y="182.8" width="517.8" height="690.5" fill="none" stroke="#cfe8ff" stroke-opacity="0.188" stroke-width="1.54"/><rect x="222.9" y="225.2" width="454.2" height="605.5" fill="none" stroke="#35cfc4" stroke-opacity="0.212" stroke-width="1.66"/><rect x="254.8" y="267.7" width="390.5" height="520.6" fill="none" stroke="#cfe8ff" stroke-opacity="0.235" stroke-width="1.78"/><rect x="286.6" y="310.2" width="326.8" height="435.7" fill="none" stroke="#35cfc4" stroke-opacity="0.258" stroke-width="1.91"/><rect x="318.5" y="352.6" width="263.1" height="350.8" fill="none" stroke="#cfe8ff" stroke-opacity="0.281" stroke-width="2.03"/><rect x="350.3" y="395.1" width="199.4" height="265.8" fill="none" stroke="#35cfc4" stroke-opacity="0.304" stroke-width="2.15"/><rect x="382.2" y="437.5" width="135.7" height="180.9" fill="none" stroke="#cfe8ff" stroke-opacity="0.327" stroke-width="2.28"/><rect x="414.0" y="480.0" width="72.0" height="96.0" fill="none" stroke="#35cfc4" stroke-opacity="0.350" stroke-width="2.40"/><g filter="url(#soft)"><circle cx="450.0" cy="528.0" r="260" fill="url(#cg)"/><circle cx="450.0" cy="528.0" r="120" fill="url(#cg2)"/></g><rect width="900" height="1200" fill="url(#vg)"/><rect width="900" height="1200" filter="url(#grain)" opacity="0.5"/></svg>