<svg xmlns="http://www.w3.org/2000/svg" viewBox="0 0 1000 1000" preserveAspectRatio="xMidYMid slice"><defs><filter id="grain"><feTurbulence type="fractalNoise" baseFrequency="0.9" numOctaves="2" stitchTiles="stitch"/><feColorMatrix type="saturate" values="0"/><feComponentTransfer><feFuncA type="linear" slope="0.06"/></feComponentTransfer><feComposite operator="over" in2="SourceGraphic"/></filter><filter id="soft" x="-50%" y="-50%" width="200%" height="200%"><feGaussianBlur stdDeviation="34"/></filter><radialGradient id="b0" cx="50%" cy="50%" r="50%"><stop offset="0%" stop-color="#cfe8ff" stop-opacity="0.5"/><stop offset="55%" stop-color="#cfe8ff" stop-opacity="0.175"/><stop offset="100%" stop-color="#cfe8ff" stop-opacity="0"/></radialGradient><radialGradient id="b1" cx="50%" cy="50%" r="50%"><stop offset="0%" stop-color="#ffffff" stop-opacity="0.35"/><stop offset="55%" stop-color="#ffffff" stop-opacity="0.122"/><stop offset="100%" stop-color="#ffffff" stop-opacity="0"/></radialGradient><radialGradient id="b2" cx="50%" cy="50%" r="50%"><stop offset="0%" stop-color="#2a5f8a" stop-opacity="0.45"/><stop offset="55%" stop-color="#2a5f8a" stop-opacity="0.158"/><stop offset="100%" stop-color="#2a5f8a" stop-opacity="0"/></radialGradient><radialGradient id="b3" cx="50%" cy="50%" r="50%"><stop offset="0%" stop-color="#2a5f8a" stop-opacity="0.4"/><stop offset="55%" stop-color="#2a5f8a" stop-opacity="0.140"/><stop offset="100%" stop-color="#2a5f8a" stop-opacity="0"/></radialGradient><radialGradient id="vg" cx="50%" cy="47%" r="72%"><stop offset="55%" stop-color="#000000" stop-opacity="0"/><stop offset="100%" stop-color="#000000" stop-opacity="0.85"/></radialGradient></defs><rect width="1000" height="1000" fill="#05080a"/><g filter="url(#soft)"><circle cx="500" cy="500" r="430" fill="url(#b0)"/><circle cx="500" cy="500" r="200" fill="url(#b1)"/><circle cx="500" cy="500" r="300" fill="url(#b2)"/><circle cx="300" cy="720" r="240" fill="url(#b3)"/></g><circle cx="500.0" cy="470.0" r="120.0" fill="none" stroke="#cfe8ff" stroke-opacity="0.100" stroke-width="1"/><circle cx="500.0" cy="470.0" r="180.0" fill="none" stroke="#cfe8ff" stroke-opacity="0.092" stroke-width="1"/><circle cx="500.0" cy="470.0" r="240.0" fill="none" stroke="#cfe8ff" stroke-opacity="0.084" stroke-width="1"/><circle cx="500.0" cy="470.0" r="300.0" fill="none" stroke="#cfe8ff" stroke-opacity="0.076" stroke-width="1"/><line x1="658" y1="501" x2="1010" y2="503" stroke="#cfe8ff" stroke-opacity="0.083" stroke-width="1"/><line x1="654" y1="548" x2="993" y2="654" stroke="#cfe8ff" stroke-opacity="0.068" stroke-width="1"/><line x1="673" y1="606" x2="863" y2="722" stroke="#cfe8ff" stroke-opacity="0.121" stroke-width="1"/><line x1="640" y1="614" x2="909" y2="835" stroke="#cfe8ff" stroke-opacity="0.067" stroke-width="1"/><line x1="593" y1="624" x2="751" y2="835" stroke="#cfe8ff" stroke-opacity="0.105" stroke-width="1"/><line x1="563" y1="645" x2="702" y2="966" stroke="#cfe8ff" stroke-opacity="0.082" stroke-width="1"/><line x1="524" y1="669" x2="575" y2="1022" stroke="#cfe8ff" stroke-opacity="0.080" stroke-width="1"/><line x1="471" y1="704" x2="431" y2="985" stroke="#cfe8ff" stroke-opacity="0.081" stroke-width="1"/><line x1="442" y1="680" x2="367" y2="914" stroke="#cfe8ff" stroke-opacity="0.094" stroke-width="1"/><line x1="381" y1="657" x2="229" y2="858" stroke="#cfe8ff" stroke-opacity="0.090" stroke-width="1"/><line x1="378" y1="615" x2="151" y2="828" stroke="#cfe8ff" stroke-opacity="0.063" stroke-width="1"/><line x1="364" y1="581" x2="108" y2="733" stroke="#cfe8ff" stroke-opacity="0.109" stroke-width="1"/><line x1="330" y1="546" x2="0" y2="637" stroke="#cfe8ff" stroke-opacity="0.136" stroke-width="1"/><line x1="297" y1="502" x2="90" y2="504" stroke="#cfe8ff" stroke-opacity="0.114" stroke-width="1"/><line x1="332" y1="454" x2="47" y2="376" stroke="#cfe8ff" stroke-opacity="0.078" stroke-width="1"/><line x1="360" y1="420" x2="76" y2="257" stroke="#cfe8ff" stroke-opacity="0.129" stroke-width="1"/><line x1="352" y1="357" x2="189" y2="198" stroke="#cfe8ff" stroke-opacity="0.067" stroke-width="1"/><line x1="382" y1="339" x2="208" y2="105" stroke="#cfe8ff" stroke-opacity="0.131" stroke-width="1"/><line x1="434" y1="331" x2="301" y2="-10" stroke="#cfe8ff" stroke-opacity="0.093" stroke-width="1"/><line x1="475" y1="312" x2="431" y2="-26" stroke="#cfe8ff" stroke-opacity="0.149" stroke-width="1"/><line x1="519" y1="349" x2="553" y2="80" stroke="#cfe8ff" stroke-opacity="0.053" stroke-width="1"/><line x1="554" y1="319" x2="633" y2="58" stroke="#cfe8ff" stroke-opacity="0.060" stroke-width="1"/><line x1="612" y1="352" x2="790" y2="116" stroke="#cfe8ff" stroke-opacity="0.142" stroke-width="1"/><line x1="626" y1="375" x2="849" y2="154" stroke="#cfe8ff" stroke-opacity="0.103" stroke-width="1"/><line x1="670" y1="402" x2="959" y2="235" stroke="#cfe8ff" stroke-opacity="0.159" stroke-width="1"/><line x1="658" y1="464" x2="933" y2="400" stroke="#cfe8ff" stroke-opacity="0.054" stroke-width="1"/><rect width="1000" height="1000" fill="url(#vg)"/><rect width="1000" height="1000" filter="url(#grain)" opacity="0.5"/></svg>