<svg xmlns="http://www.w3.org/2000/svg" viewBox="0 0 1000 1000" preserveAspectRatio="xMidYMid slice"><defs><filter id="grain"><feTurbulence type="fractalNoise" baseFrequency="0.9" numOctaves="2" stitchTiles="stitch"/><feColorMatrix type="saturate" values="0"/><feComponentTransfer><feFuncA type="linear" slope="0.06"/></feComponentTransfer><feComposite operator="over" in2="SourceGraphic"/></filter><filter id="soft" x="-50%" y="-50%" width="200%" height="200%"><feGaussianBlur stdDeviation="34"/></filter><radialGradient id="b0" cx="50%" cy="50%" r="50%"><stop offset="0%" stop-color="#b9a9ff" stop-opacity="0.5"/><stop offset="55%" stop-color="#b9a9ff" stop-opacity="0.175"/><stop offset="100%" stop-color="#b9a9ff" stop-opacity="0"/></radialGradient><radialGradient id="b1" cx="50%" cy="50%" r="50%"><stop offset="0%" stop-color="#ffffff" stop-opacity="0.35"/><stop offset="55%" stop-color="#ffffff" stop-opacity="0.122"/><stop offset="100%" stop-color="#ffffff" stop-opacity="0"/></radialGradient><radialGradient id="b2" cx="50%" cy="50%" r="50%"><stop offset="0%" stop-color="#3a2f6a" stop-opacity="0.45"/><stop offset="55%" stop-color="#3a2f6a" stop-opacity="0.158"/><stop offset="100%" stop-color="#3a2f6a" stop-opacity="0"/></radialGradient><radialGradient id="b3" cx="50%" cy="50%" r="50%"><stop offset="0%" stop-color="#3a2f6a" stop-opacity="0.4"/><stop offset="55%" stop-color="#3a2f6a" stop-opacity="0.140"/><stop offset="100%" stop-color="#3a2f6a" stop-opacity="0"/></radialGradient><radialGradient id="vg" cx="50%" cy="47%" r="72%"><stop offset="55%" stop-color="#000000" stop-opacity="0"/><stop offset="100%" stop-color="#000000" stop-opacity="0.85"/></radialGradient></defs><rect width="1000" height="1000" fill="#05080a"/><g filter="url(#soft)"><circle cx="500" cy="500" r="430" fill="url(#b0)"/><circle cx="500" cy="500" r="200" fill="url(#b1)"/><circle cx="500" cy="500" r="300" fill="url(#b2)"/><circle cx="300" cy="720" r="240" fill="url(#b3)"/></g><circle cx="500.0" cy="470.0" r="120.0" fill="none" stroke="#b9a9ff" stroke-opacity="0.100" stroke-width="1"/><circle cx="500.0" cy="470.0" r="180.0" fill="none" stroke="#b9a9ff" stroke-opacity="0.092" stroke-width="1"/><circle cx="500.0" cy="470.0" r="240.0" fill="none" stroke="#b9a9ff" stroke-opacity="0.084" stroke-width="1"/><circle cx="500.0" cy="470.0" r="300.0" fill="none" stroke="#b9a9ff" stroke-opacity="0.076" stroke-width="1"/><line x1="651" y1="506" x2="1006" y2="520" stroke="#b9a9ff" stroke-opacity="0.109" stroke-width="1"/><line x1="663" y1="548" x2="955" y2="633" stroke="#b9a9ff" stroke-opacity="0.079" stroke-width="1"/><line x1="668" y1="598" x2="971" y2="774" stroke="#b9a9ff" stroke-opacity="0.116" stroke-width="1"/><line x1="643" y1="633" x2="883" y2="854" stroke="#b9a9ff" stroke-opacity="0.130" stroke-width="1"/><line x1="602" y1="629" x2="824" y2="911" stroke="#b9a9ff" stroke-opacity="0.128" stroke-width="1"/><line x1="554" y1="648" x2="672" y2="972" stroke="#b9a9ff" stroke-opacity="0.080" stroke-width="1"/><line x1="534" y1="686" x2="579" y2="936" stroke="#b9a9ff" stroke-opacity="0.084" stroke-width="1"/><line x1="490" y1="662" x2="474" y2="917" stroke="#b9a9ff" stroke-opacity="0.065" stroke-width="1"/><line x1="419" y1="677" x2="303" y2="928" stroke="#b9a9ff" stroke-opacity="0.077" stroke-width="1"/><line x1="392" y1="646" x2="249" y2="842" stroke="#b9a9ff" stroke-opacity="0.109" stroke-width="1"/><line x1="375" y1="597" x2="97" y2="815" stroke="#b9a9ff" stroke-opacity="0.088" stroke-width="1"/><line x1="330" y1="599" x2="111" y2="727" stroke="#b9a9ff" stroke-opacity="0.103" stroke-width="1"/><line x1="323" y1="556" x2="98" y2="628" stroke="#b9a9ff" stroke-opacity="0.053" stroke-width="1"/><line x1="326" y1="496" x2="79" y2="489" stroke="#b9a9ff" stroke-opacity="0.085" stroke-width="1"/><line x1="337" y1="467" x2="41" y2="407" stroke="#b9a9ff" stroke-opacity="0.150" stroke-width="1"/><line x1="312" y1="416" x2="4" y2="278" stroke="#b9a9ff" stroke-opacity="0.080" stroke-width="1"/><line x1="367" y1="398" x2="87" y2="181" stroke="#b9a9ff" stroke-opacity="0.117" stroke-width="1"/><line x1="404" y1="358" x2="204" y2="63" stroke="#b9a9ff" stroke-opacity="0.066" stroke-width="1"/><line x1="418" y1="317" x2="329" y2="121" stroke="#b9a9ff" stroke-opacity="0.093" stroke-width="1"/><line x1="472" y1="302" x2="427" y2="-15" stroke="#b9a9ff" stroke-opacity="0.135" stroke-width="1"/><line x1="512" y1="341" x2="539" y2="-27" stroke="#b9a9ff" stroke-opacity="0.142" stroke-width="1"/><line x1="582" y1="308" x2="716" y2="-4" stroke="#b9a9ff" stroke-opacity="0.055" stroke-width="1"/><line x1="614" y1="327" x2="796" y2="49" stroke="#b9a9ff" stroke-opacity="0.061" stroke-width="1"/><line x1="627" y1="376" x2="848" y2="161" stroke="#b9a9ff" stroke-opacity="0.061" stroke-width="1"/><line x1="632" y1="419" x2="953" y2="221" stroke="#b9a9ff" stroke-opacity="0.120" stroke-width="1"/><line x1="695" y1="445" x2="971" y2="366" stroke="#b9a9ff" stroke-opacity="0.126" stroke-width="1"/><rect width="1000" height="1000" fill="url(#vg)"/><rect width="1000" height="1000" filter="url(#grain)" opacity="0.5"/></svg>