<svg xmlns="http://www.w3.org/2000/svg" viewBox="0 0 1000 1000" preserveAspectRatio="xMidYMid slice"><defs><filter id="grain"><feTurbulence type="fractalNoise" baseFrequency="0.9" numOctaves="2" stitchTiles="stitch"/><feColorMatrix type="saturate" values="0"/><feComponentTransfer><feFuncA type="linear" slope="0.06"/></feComponentTransfer><feComposite operator="over" in2="SourceGraphic"/></filter><filter id="soft" x="-50%" y="-50%" width="200%" height="200%"><feGaussianBlur stdDeviation="34"/></filter><radialGradient id="b0" cx="50%" cy="50%" r="50%"><stop offset="0%" stop-color="#e6a453" stop-opacity="0.5"/><stop offset="55%" stop-color="#e6a453" stop-opacity="0.175"/><stop offset="100%" stop-color="#e6a453" stop-opacity="0"/></radialGradient><radialGradient id="b1" cx="50%" cy="50%" r="50%"><stop offset="0%" stop-color="#ffffff" stop-opacity="0.35"/><stop offset="55%" stop-color="#ffffff" stop-opacity="0.122"/><stop offset="100%" stop-color="#ffffff" stop-opacity="0"/></radialGradient><radialGradient id="b2" cx="50%" cy="50%" r="50%"><stop offset="0%" stop-color="#7a4a1e" stop-opacity="0.45"/><stop offset="55%" stop-color="#7a4a1e" stop-opacity="0.158"/><stop offset="100%" stop-color="#7a4a1e" stop-opacity="0"/></radialGradient><radialGradient id="b3" cx="50%" cy="50%" r="50%"><stop offset="0%" stop-color="#7a4a1e" stop-opacity="0.4"/><stop offset="55%" stop-color="#7a4a1e" stop-opacity="0.140"/><stop offset="100%" stop-color="#7a4a1e" stop-opacity="0"/></radialGradient><radialGradient id="vg" cx="50%" cy="47%" r="72%"><stop offset="55%" stop-color="#000000" stop-opacity="0"/><stop offset="100%" stop-color="#000000" stop-opacity="0.85"/></radialGradient></defs><rect width="1000" height="1000" fill="#05080a"/><g filter="url(#soft)"><circle cx="500" cy="500" r="430" fill="url(#b0)"/><circle cx="500" cy="500" r="200" fill="url(#b1)"/><circle cx="500" cy="500" r="300" fill="url(#b2)"/><circle cx="300" cy="720" r="240" fill="url(#b3)"/></g><circle cx="500.0" cy="470.0" r="120.0" fill="none" stroke="#e6a453" stroke-opacity="0.100" stroke-width="1"/><circle cx="500.0" cy="470.0" r="180.0" fill="none" stroke="#e6a453" stroke-opacity="0.092" stroke-width="1"/><circle cx="500.0" cy="470.0" r="240.0" fill="none" stroke="#e6a453" stroke-opacity="0.084" stroke-width="1"/><circle cx="500.0" cy="470.0" r="300.0" fill="none" stroke="#e6a453" stroke-opacity="0.076" stroke-width="1"/><line x1="690" y1="500" x2="1024" y2="501" stroke="#e6a453" stroke-opacity="0.052" stroke-width="1"/><line x1="705" y1="543" x2="956" y2="595" stroke="#e6a453" stroke-opacity="0.133" stroke-width="1"/><line x1="629" y1="579" x2="949" y2="776" stroke="#e6a453" stroke-opacity="0.078" stroke-width="1"/><line x1="650" y1="640" x2="892" y2="865" stroke="#e6a453" stroke-opacity="0.098" stroke-width="1"/><line x1="603" y1="649" x2="738" y2="842" stroke="#e6a453" stroke-opacity="0.105" stroke-width="1"/><line x1="578" y1="690" x2="704" y2="997" stroke="#e6a453" stroke-opacity="0.084" stroke-width="1"/><line x1="516" y1="682" x2="543" y2="974" stroke="#e6a453" stroke-opacity="0.076" stroke-width="1"/><line x1="474" y1="664" x2="423" y2="984" stroke="#e6a453" stroke-opacity="0.063" stroke-width="1"/><line x1="446" y1="646" x2="326" y2="968" stroke="#e6a453" stroke-opacity="0.050" stroke-width="1"/><line x1="387" y1="663" x2="190" y2="947" stroke="#e6a453" stroke-opacity="0.056" stroke-width="1"/><line x1="375" y1="609" x2="186" y2="773" stroke="#e6a453" stroke-opacity="0.103" stroke-width="1"/><line x1="328" y1="580" x2="5" y2="731" stroke="#e6a453" stroke-opacity="0.143" stroke-width="1"/><line x1="318" y1="558" x2="92" y2="630" stroke="#e6a453" stroke-opacity="0.105" stroke-width="1"/><line x1="346" y1="499" x2="7" y2="497" stroke="#e6a453" stroke-opacity="0.139" stroke-width="1"/><line x1="339" y1="452" x2="64" y2="371" stroke="#e6a453" stroke-opacity="0.053" stroke-width="1"/><line x1="326" y1="407" x2="40" y2="255" stroke="#e6a453" stroke-opacity="0.054" stroke-width="1"/><line x1="375" y1="392" x2="144" y2="193" stroke="#e6a453" stroke-opacity="0.142" stroke-width="1"/><line x1="410" y1="375" x2="228" y2="120" stroke="#e6a453" stroke-opacity="0.147" stroke-width="1"/><line x1="437" y1="321" x2="357" y2="96" stroke="#e6a453" stroke-opacity="0.148" stroke-width="1"/><line x1="489" y1="335" x2="471" y2="79" stroke="#e6a453" stroke-opacity="0.134" stroke-width="1"/><line x1="533" y1="317" x2="586" y2="19" stroke="#e6a453" stroke-opacity="0.071" stroke-width="1"/><line x1="559" y1="321" x2="654" y2="34" stroke="#e6a453" stroke-opacity="0.083" stroke-width="1"/><line x1="595" y1="346" x2="769" y2="66" stroke="#e6a453" stroke-opacity="0.098" stroke-width="1"/><line x1="607" y1="395" x2="878" y2="130" stroke="#e6a453" stroke-opacity="0.094" stroke-width="1"/><line x1="686" y1="415" x2="884" y2="324" stroke="#e6a453" stroke-opacity="0.108" stroke-width="1"/><line x1="649" y1="457" x2="1009" y2="355" stroke="#e6a453" stroke-opacity="0.101" stroke-width="1"/><rect width="1000" height="1000" fill="url(#vg)"/><rect width="1000" height="1000" filter="url(#grain)" opacity="0.5"/></svg>