<svg xmlns="http://www.w3.org/2000/svg" viewBox="0 0 1000 1000" preserveAspectRatio="xMidYMid slice"><defs><filter id="grain"><feTurbulence type="fractalNoise" baseFrequency="0.9" numOctaves="2" stitchTiles="stitch"/><feColorMatrix type="saturate" values="0"/><feComponentTransfer><feFuncA type="linear" slope="0.06"/></feComponentTransfer><feComposite operator="over" in2="SourceGraphic"/></filter><filter id="soft" x="-50%" y="-50%" width="200%" height="200%"><feGaussianBlur stdDeviation="34"/></filter><radialGradient id="b0" cx="50%" cy="50%" r="50%"><stop offset="0%" stop-color="#35cfc4" stop-opacity="0.5"/><stop offset="55%" stop-color="#35cfc4" stop-opacity="0.175"/><stop offset="100%" stop-color="#35cfc4" stop-opacity="0"/></radialGradient><radialGradient id="b1" cx="50%" cy="50%" r="50%"><stop offset="0%" stop-color="#ffffff" stop-opacity="0.35"/><stop offset="55%" stop-color="#ffffff" stop-opacity="0.122"/><stop offset="100%" stop-color="#ffffff" stop-opacity="0"/></radialGradient><radialGradient id="b2" cx="50%" cy="50%" r="50%"><stop offset="0%" stop-color="#0e5c5a" stop-opacity="0.45"/><stop offset="55%" stop-color="#0e5c5a" stop-opacity="0.158"/><stop offset="100%" stop-color="#0e5c5a" stop-opacity="0"/></radialGradient><radialGradient id="b3" cx="50%" cy="50%" r="50%"><stop offset="0%" stop-color="#0e5c5a" stop-opacity="0.4"/><stop offset="55%" stop-color="#0e5c5a" stop-opacity="0.140"/><stop offset="100%" stop-color="#0e5c5a" stop-opacity="0"/></radialGradient><radialGradient id="vg" cx="50%" cy="47%" r="72%"><stop offset="55%" stop-color="#000000" stop-opacity="0"/><stop offset="100%" stop-color="#000000" stop-opacity="0.85"/></radialGradient></defs><rect width="1000" height="1000" fill="#05080a"/><g filter="url(#soft)"><circle cx="500" cy="500" r="430" fill="url(#b0)"/><circle cx="500" cy="500" r="200" fill="url(#b1)"/><circle cx="500" cy="500" r="300" fill="url(#b2)"/><circle cx="300" cy="720" r="240" fill="url(#b3)"/></g><circle cx="500.0" cy="470.0" r="120.0" fill="none" stroke="#35cfc4" stroke-opacity="0.100" stroke-width="1"/><circle cx="500.0" cy="470.0" r="180.0" fill="none" stroke="#35cfc4" stroke-opacity="0.092" stroke-width="1"/><circle cx="500.0" cy="470.0" r="240.0" fill="none" stroke="#35cfc4" stroke-opacity="0.084" stroke-width="1"/><circle cx="500.0" cy="470.0" r="300.0" fill="none" stroke="#35cfc4" stroke-opacity="0.076" stroke-width="1"/><line x1="685" y1="495" x2="947" y2="488" stroke="#35cfc4" stroke-opacity="0.139" stroke-width="1"/><line x1="665" y1="540" x2="1021" y2="626" stroke="#35cfc4" stroke-opacity="0.137" stroke-width="1"/><line x1="664" y1="597" x2="875" y2="722" stroke="#35cfc4" stroke-opacity="0.093" stroke-width="1"/><line x1="653" y1="626" x2="818" y2="761" stroke="#35cfc4" stroke-opacity="0.137" stroke-width="1"/><line x1="602" y1="634" x2="802" y2="896" stroke="#35cfc4" stroke-opacity="0.124" stroke-width="1"/><line x1="565" y1="672" x2="674" y2="961" stroke="#35cfc4" stroke-opacity="0.116" stroke-width="1"/><line x1="529" y1="666" x2="572" y2="907" stroke="#35cfc4" stroke-opacity="0.112" stroke-width="1"/><line x1="485" y1="664" x2="459" y2="947" stroke="#35cfc4" stroke-opacity="0.154" stroke-width="1"/><line x1="438" y1="694" x2="336" y2="1011" stroke="#35cfc4" stroke-opacity="0.072" stroke-width="1"/><line x1="402" y1="629" x2="197" y2="898" stroke="#35cfc4" stroke-opacity="0.063" stroke-width="1"/><line x1="369" y1="622" x2="162" y2="816" stroke="#35cfc4" stroke-opacity="0.141" stroke-width="1"/><line x1="364" y1="568" x2="63" y2="718" stroke="#35cfc4" stroke-opacity="0.060" stroke-width="1"/><line x1="334" y1="549" x2="64" y2="629" stroke="#35cfc4" stroke-opacity="0.111" stroke-width="1"/><line x1="304" y1="487" x2="15" y2="467" stroke="#35cfc4" stroke-opacity="0.142" stroke-width="1"/><line x1="311" y1="463" x2="-36" y2="394" stroke="#35cfc4" stroke-opacity="0.154" stroke-width="1"/><line x1="336" y1="414" x2="90" y2="284" stroke="#35cfc4" stroke-opacity="0.098" stroke-width="1"/><line x1="389" y1="387" x2="128" y2="122" stroke="#35cfc4" stroke-opacity="0.075" stroke-width="1"/><line x1="397" y1="349" x2="266" y2="155" stroke="#35cfc4" stroke-opacity="0.103" stroke-width="1"/><line x1="414" y1="312" x2="274" y2="8" stroke="#35cfc4" stroke-opacity="0.114" stroke-width="1"/><line x1="484" y1="307" x2="464" y2="63" stroke="#35cfc4" stroke-opacity="0.058" stroke-width="1"/><line x1="518" y1="326" x2="549" y2="24" stroke="#35cfc4" stroke-opacity="0.124" stroke-width="1"/><line x1="571" y1="331" x2="659" y2="122" stroke="#35cfc4" stroke-opacity="0.087" stroke-width="1"/><line x1="619" y1="335" x2="740" y2="165" stroke="#35cfc4" stroke-opacity="0.130" stroke-width="1"/><line x1="627" y1="387" x2="897" y2="146" stroke="#35cfc4" stroke-opacity="0.082" stroke-width="1"/><line x1="659" y1="409" x2="934" y2="251" stroke="#35cfc4" stroke-opacity="0.068" stroke-width="1"/><line x1="661" y1="461" x2="1003" y2="377" stroke="#35cfc4" stroke-opacity="0.056" stroke-width="1"/><rect width="1000" height="1000" fill="url(#vg)"/><rect width="1000" height="1000" filter="url(#grain)" opacity="0.5"/></svg>