<svg xmlns="http://www.w3.org/2000/svg" viewBox="0 0 512 512" width="512" height="512">
<rect width="512" height="512" rx="112" ry="112" fill="#080808"/>
<g transform="translate(112.12 106.00) scale(1.7241)">
<path fill="#f5f5f0" d="M130.1,97.8l3.1,0l-1.7-2.9l-1.5-2.6l-2.7-4.5l-1.7-2.8l-4.2-7.2l-1.6-2.7v-0.1l-1.6,2.8l-4.2,7.1l-1.7,2.9
			L110,92l0,0l-1.7,2.9l-1.8,3l-4,6.9l-1.8,3.1l-0.7,1.2l-3.2,5.6h-0.1l-6.6,0l-4.8,0h-0.2l-5,0l-6.4,0h-0.2l-3.4,0l-7.9,0h-2.1
			l-9.4-0.1h-0.4l-0.2-0.3v0.3l-10-0.1h-1l1-1.7l2.6-4.5l2-3.3l3.9-6.7l1.4-2.5l0.5-0.8l4-6.8l1.8-3.1l3.7-6.3l0.3-0.6l1.8-3l4.1-7
			l1.7-2.9l2-3.5L72,58l1.7-2.8l4.2-7.2l1.6-2.7l0.4-0.7l3.8-6.6l1.5-2.6l4.3-7.4h0.2v-0.4l1.2-2.1l2.7-4.6c-1.3-0.1-2.6-0.1-4-0.1
			h-0.2c-0.4,0-0.8,0-1.2,0c-2.1,0-4.2,0.2-6.3,0.4c-0.7,0.1-1.5,0.2-2.2,0.3c-0.8,0.1-1.6,0.2-2.4,0.4c-2.6,0.5-5.1,1.1-7.6,1.9
			c-0.4,0.1-0.7,0.2-1.1,0.3c-0.4,0.1-0.9,0.3-1.3,0.5c-2.6,0.9-5.1,2-7.6,3.2c-0.3,0.1-0.5,0.2-0.8,0.4c-0.3,0.1-0.6,0.3-0.9,0.5
			c-1.9,1-3.8,2.2-5.7,3.4c-0.9,0.6-1.8,1.2-2.7,1.9c0,0-0.1,0-0.1,0.1c-1.8,1.3-3.5,2.7-5.1,4.2c-0.9,0.8-1.8,1.6-2.6,2.5
			c-0.8,0.8-1.5,1.5-2.2,2.3c-1.5,1.7-2.9,3.4-4.2,5.2c-0.2,0.2-0.3,0.4-0.5,0.6c-2,2.8-3.8,5.8-5.3,8.9c-0.1,0.2-0.2,0.3-0.3,0.5
			c-0.1,0.2-0.2,0.3-0.2,0.5c-1.5,3-2.7,6.2-3.6,9.5c-0.3,0.9-0.5,1.8-0.8,2.8c-0.6,2.4-1.1,4.8-1.4,7.2c-0.2,1.3-0.3,2.6-0.4,3.9
			c-0.1,1.7-0.2,3.3-0.2,5v0.3c0,0.3,0,0.5,0,0.8c0,3.4,0.4,6.7,0.9,10c0.1,0.7,0.2,1.3,0.4,1.9c0.5,2.8,1.2,5.4,2.1,8.1
			c0.6,1.7,1.2,3.3,1.9,4.9c0.2,0.4,0.3,0.8,0.5,1.2c0.4,1,0.9,1.7,1.4,2.6v0.3c0.2,0.3,0.4,0.7,0.5,1c1,1.8,2,3.6,3.1,5.3
			c0.2,0.3,0.3,0.6,0.5,0.8c0.9,1.3,1.8,2.6,2.8,3.8c1,1.2,2,2.5,3.1,3.6c0.1,0.1,0.1,0.1,0.2,0.2c2,2.2,4.1,4.2,6.4,6.1
			c0.4,0.3,0.7,0.6,1.1,0.9c0.8,0.6,1.6,1.2,2.4,1.8c1.9,1.4,3.9,2.7,5.9,3.9c0.1,0.1,0.2,0.1,0.4,0.2c1.2,0.7,2.5,1.4,3.7,2
			c0.8,0.4,1.6,0.8,2.4,1.1c0.8,0.4,1.7,0.7,2.5,1c1.7,0.7,3.4,1.2,5.1,1.8c0.5,0.2,1,0.3,1.5,0.4c1.1,0.3,2.1,0.6,3.2,0.8
			c1.7,0.4,3.5,0.7,5.3,0.9c1.4,0.2,2.9,0.4,4.4,0.5c0.3,0,0.7,0.1,1.1,0.1c1.2,0.1,2.5,0.1,3.8,0.1c0.3,0,0.5,0,0.8,0
			c2,0,3.9-0.1,5.9-0.3h0c0.4-0.1,0.9-0.1,1.3-0.1c0.9-0.1,1.9-0.2,2.8-0.4c2.2-0.3,4.3-0.8,6.3-1.4c1.2-0.3,2.4-0.7,3.7-1.1
			c0.2-0.1,0.4-0.1,0.6-0.2h0c1.8-0.6,3.6-1.3,5.4-2.1c0.2-0.1,0.3-0.2,0.4-0.3h0.2c1.2-0.5,2.3-1.1,3.4-1.7
			c1.7-0.9,3.2-1.8,4.8-2.8c0.7-0.4,1.4-0.9,2.2-1.4h0c1-0.7,2-1.4,3-2.2c0.8-0.6,1.6-1.3,2.4-2c0.2-0.1,0.3-0.3,0.5-0.4
			c2.5-2.2,4.9-4.6,7.1-7.1c0.1-0.1,0.1-0.2,0.2-0.2c0.6-0.7,1.2-1.5,1.8-2.2c0.7-0.9,1.4-1.9,2.1-2.9l4.5,0h1.4l10,0.1h0.4l4.1,0
			c-0.4,0.9-0.9,1.8-1.4,2.7c-0.2,0.3-0.4,0.7-0.6,1c-0.8,1.5-1.7,2.9-2.6,4.4v0.2c-1,1.6-2,2.9-3.1,4.4c-0.1,0.2-0.2,0.3-0.4,0.5
			c-2,2.7-4.2,5.4-6.5,7.8c-0.1,0.1-0.2,0.2-0.3,0.4c-0.4,0.5-0.9,0.9-1.3,1.4h0c-1.1,1.2-2.3,2.3-3.5,3.4c-0.9,0.8-1.7,1.5-2.6,2.2
			c-0.7,0.6-1.4,1.2-2.2,1.8c-1.2,0.9-2.4,1.8-3.6,2.6c-0.8,0.6-1.6,1.1-2.4,1.6c-1.3,0.9-2.7,1.7-4.1,2.5c-1.5,0.9-3,1.7-4.6,2.5h0
			c0,0,0,0,0,0c-1.8,0.9-3.6,1.7-5.4,2.5c-0.8,0.4-1.7,0.7-2.5,1c-0.4,0.2-0.9,0.3-1.3,0.5c-1.9,0.7-3.8,1.3-5.7,1.9
			c-0.1,0-0.3,0.1-0.4,0.1c-1.2,0.4-2.5,0.7-3.8,1c-2.1,0.5-4.1,0.9-6.2,1.2c-0.9,0.1-1.8,0.3-2.7,0.4c-0.5,0.1-1.1,0.1-1.6,0.2
			c-1.9,0.2-3.8,0.3-5.7,0.4c-1.1,0.1-2.3,0.1-3.4,0.1c-0.4,0-0.9,0-1.3,0c-0.3,0-0.7,0-1,0c-1.5,0-2.9-0.1-4.3-0.2
			c-1.9-0.1-3.9-0.4-5.8-0.6c-0.7-0.1-1.4-0.2-2.2-0.3l0,0c-0.7-0.1-1.4-0.2-2.1-0.4c-2.1-0.4-4.1-0.9-6.1-1.4
			c-1.3-0.4-2.6-0.7-3.9-1.2c-0.5-0.1-1-0.3-1.5-0.5c-0.7-0.2-1.1-0.5-1.8-0.7h-0.2c-0.8-0.3-1.5-0.6-2.2-0.9
			c-1.4-0.6-2.9-1.2-4.3-1.9c-1.6-0.8-3.2-1.6-4.8-2.4c-0.8-0.5-1.7-0.9-2.5-1.4c-0.9-0.5-1.8-1.1-2.7-1.6c-0.8-0.5-1.7-1.1-2.5-1.7
			h-0.1c-0.3-0.2-0.4-0.4-0.7-0.6c-2.3-1.7-4.6-3.4-6.8-5.3c-0.4-0.3-0.8-0.7-1.1-1c-1.1-1-2.2-2-3.3-3.1c-1.4-1.4-2.7-2.8-4-4.3
			c-0.6-0.6-1.1-1.3-1.6-1.9c-0.2-0.2-0.4-0.4-0.5-0.7h0c-0.8-1-1.6-2-2.4-3.1c-0.7-0.9-1.4-1.9-2-2.9c-1.6-2.3-3-4.7-4.3-7.1
			c-0.3-0.5-0.5-1-0.8-1.5c-0.2-0.4-0.5-0.9-0.7-1.3c-0.2-0.4-0.4-0.8-0.6-1.3c-0.9-1.8-1.7-3.7-2.4-5.6c0-0.1-0.1-0.2-0.1-0.3
			c-0.5-1.3-1-2.7-1.5-4.1c-0.1-0.1-0.1-0.2-0.1-0.4c-0.6-1.8-1.1-3.6-1.6-5.5c-0.7-2.8-1.3-5.7-1.7-8.7c-0.1-0.4-0.1-0.9-0.2-1.3
			c-0.4-3.2-0.7-6.4-0.7-9.8c0-0.1,0-0.2,0-0.2c0-0.4,0-0.9,0-1.3c0-2,0.1-4,0.2-5.9c0.1-0.9,0.1-1.8,0.2-2.7c0.2-2.4,0.6-4.8,1-7.2
			l0,0c0.2-1,0.4-1.9,0.6-2.8c0.8-3.4,1.7-6.8,2.8-10c0.1-0.2,0.2-0.5,0.2-0.7c1.2-3.2,2.5-6.3,4-9.3c0.1-0.2,0.1-0.2,0.2-0.3v-0.2
			c0.2-0.5,0.5-1,0.8-1.5l0,0c1.5-2.8,3.1-5.5,4.9-8.1c0.4-0.5,0.7-1,1.1-1.5c1-1.4,2.1-2.8,3.2-4.2c1.1-1.4,2.3-2.8,3.5-4.1
			c0.1-0.1,0.1-0.1,0.2-0.2c2-2.1,4-4.2,6.2-6.1c0.3-0.3,0.7-0.6,1-0.9c1.2-1.1,2.5-2.1,3.8-3.1c1.4-1,2.8-2,4.2-3
			c0.2-0.1,0.4-0.2,0.6-0.4c0.1-0.1,0.3-0.2,0.4-0.2c2.5-1.6,5-3.1,7.7-4.5c0.8-0.4,1.5-0.8,2.3-1.2c0.6-0.3,1.2-0.6,1.7-0.8
			c1.5-0.7,3-1.3,4.5-1.9c0.2-0.1,0.4-0.2,0.7-0.2c1-0.4,2.1-0.8,3.1-1.1c2.2-0.7,4.4-1.4,6.7-1.9c1.1-0.3,2.2-0.5,3.3-0.7v0.3
			l0.2-0.3c2.3-0.5,4.6-0.8,7-1.1c0.9-0.1,1.9-0.2,2.8-0.3c0.9-0.1,1.8-0.1,2.7-0.2c1.5-0.1,3.1-0.1,4.7-0.1c0.4,0,0.7,0,1.1,0
			c0.5,0,1.1,0,1.6,0c1.4,0,2.8,0.1,4.2,0.2c2,0.2,3.9,0.4,5.8,0.7c0.2,0,0.4,0,0.6,0.1l2.4,4.1l1.4,2.3l4.4,7.6l1.3,2.3v0.1h0.1
			l4.4,7.6l-1.4,2.4l-3,5.1l-1.4,2.4l-1.5,2.5l-4.3,7.4l-1.5,2.6l-1.2,2l-3.1,5.2l-1.6,2.7L91,65.1L89.9,67l-0.6,1l-4.1,7.1L83.5,78
			L80,84l-0.6,1l-1.8,3l-4,6.9L71.8,98l3.7,0l4.6,0h3.4l1.8-3.1l4.1-6.9l0.7-1.3l0,0l1-1.7l4.1-7l1.7-2.9l3.1-5.4l1-1.8l1.6-2.8
			l4.2-7.2h0l1.6-2.7l0,0l1.5-2.6l0,0l2.8-4.8l1.5-2.6l4.3-7.4l1.3-2.2l0.2-0.3l1.4,2.5l4.3,7.5l1.5,2.5l2.6,4.5l0,0l1.7,2.8
			l1.5,2.6l4.3,7.4l1.5,2.6l1.1,1.9l3.2,5.4l1.6,2.7l4.2,7.2l1.1,1.9v0.8h0.5l4.2,7.2l0.7,1.2l0.9,1.5l3.8,6.5l0.4,0.7l1.6,2.8
			l4.1,7.1l-0.1,0.2l-6,0l-5.4,0h-0.2l-4.4,0H150l-6.8,0h-3l-8.6-0.1h-1.4l-10-0.1H120l-9.8,0h-1.7l1.7-2.9l0,0l2.3-3.9l1.8-3l4.1-7
			h1.8l1.6,0l8.2,0L130.1,97.8L130.1,97.8z"/>
</g>
</svg>